999
"DXF R12 Output" (www.mydxf.blogspot.com)
 0 
SECTION
 2 
HEADER
 9 
$ACADVER
 1 
AC1009
 9 
$EXTMIN
 10 
 0 
 20 
 0 
 9 
$EXTMAX
 10 
 8.5 
 20 
 11 
 0 
ENDSEC
 0 
SECTION
 2 
ENTITIES
0
LINE
8
Layer 1
10
65.720288
20
245.058543
11
66.222702
21
245.058543
0
LINE
8
Layer 1
10
66.222702
20
245.058543
11
66.222702
21
245.230919
0
LINE
8
Layer 1
10
66.222702
20
245.230919
11
65.020272
21
245.230919
0
LINE
8
Layer 1
10
65.020272
20
245.230919
11
65.020272
21
245.058543
0
LINE
8
Layer 1
10
65.020272
20
245.058543
11
65.524788
21
245.058543
0
LINE
8
Layer 1
10
65.524788
20
245.058543
11
65.524788
21
243.698452
0
LINE
8
Layer 1
10
65.524788
20
243.698452
11
65.720288
21
243.698452
0
LINE
8
Layer 1
10
65.720288
20
243.698452
11
65.720288
21
245.058543
0
LINE
8
Layer 1
10
67.385191
20
244.455226
11
67.626938
21
244.821000
0
LINE
8
Layer 1
10
67.626938
20
244.821000
11
67.506327
21
245.125286
0
LINE
8
Layer 1
10
67.506327
20
245.125286
11
67.160261
21
245.230919
0
LINE
8
Layer 1
10
67.160261
20
245.230919
11
66.453938
21
245.230919
0
LINE
8
Layer 1
10
66.453938
20
245.230919
11
66.453938
21
243.698452
0
LINE
8
Layer 1
10
66.453938
20
243.698452
11
66.649438
21
243.698452
0
LINE
8
Layer 1
10
66.649438
20
243.698452
11
66.649438
21
244.358527
0
LINE
8
Layer 1
10
66.649438
20
244.358527
11
67.153954
21
244.358527
0
LINE
8
Layer 1
10
67.153954
20
244.358527
11
67.345513
21
244.292835
0
LINE
8
Layer 1
10
67.345513
20
244.292835
11
67.406212
21
244.085248
0
LINE
8
Layer 1
10
67.406212
20
244.085248
11
67.406212
21
243.948608
0
LINE
8
Layer 1
10
67.406212
20
243.948608
11
67.448255
21
243.698452
0
LINE
8
Layer 1
10
67.448255
20
243.698452
11
67.685798
21
243.698452
0
LINE
8
Layer 1
10
67.685798
20
243.698452
11
67.685798
21
243.746801
0
LINE
8
Layer 1
10
67.685798
20
243.746801
11
67.593304
21
243.988549
0
LINE
8
Layer 1
10
67.593304
20
243.988549
11
67.595405
21
244.095758
0
LINE
8
Layer 1
10
67.595405
20
244.095758
11
67.562033
21
244.296776
0
LINE
8
Layer 1
10
67.562033
20
244.296776
11
67.385190
21
244.455226
0
LINE
8
Layer 1
10
67.385190
20
244.455226
11
67.385191
21
244.455226
0
LINE
8
Layer 1
10
67.423029
20
244.793672
11
67.350768
21
244.594493
0
LINE
8
Layer 1
10
67.350768
20
244.594493
11
67.122422
21
244.530903
0
LINE
8
Layer 1
10
67.122422
20
244.530903
11
66.649438
21
244.530903
0
LINE
8
Layer 1
10
66.649438
20
244.530903
11
66.649438
21
245.058543
0
LINE
8
Layer 1
10
66.649438
20
245.058543
11
67.122422
21
245.058543
0
LINE
8
Layer 1
10
67.122422
20
245.058543
11
67.334214
21
245.008091
0
LINE
8
Layer 1
10
67.334214
20
245.008091
11
67.423029
21
244.793672
0
LINE
8
Layer 1
10
67.423029
20
244.793672
11
67.423029
21
244.793672
0
LINE
8
Layer 1
10
68.768405
20
244.158823
11
68.926066
21
243.698452
0
LINE
8
Layer 1
10
68.926066
20
243.698452
11
69.144690
21
243.698452
0
LINE
8
Layer 1
10
69.144690
20
243.698452
11
68.606539
21
245.230919
0
LINE
8
Layer 1
10
68.606539
20
245.230919
11
68.354281
21
245.230919
0
LINE
8
Layer 1
10
68.354281
20
245.230919
11
67.807722
21
243.698452
0
LINE
8
Layer 1
10
67.807722
20
243.698452
11
68.015835
21
243.698452
0
LINE
8
Layer 1
10
68.015835
20
243.698452
11
68.177701
21
244.158823
0
LINE
8
Layer 1
10
68.177701
20
244.158823
11
68.768405
21
244.158823
0
LINE
8
Layer 1
10
68.713749
20
244.322790
11
68.226050
21
244.322790
0
LINE
8
Layer 1
10
68.226050
20
244.322790
11
68.478308
21
245.020704
0
LINE
8
Layer 1
10
68.478308
20
245.020704
11
68.713749
21
244.322790
0
LINE
8
Layer 1
10
69.260305
20
244.446817
11
69.398784
21
243.931002
0
LINE
8
Layer 1
10
69.398784
20
243.931002
11
69.610608
21
243.730542
0
LINE
8
Layer 1
10
69.610608
20
243.730542
11
69.951912
21
243.650102
0
LINE
8
Layer 1
10
69.951912
20
243.650102
11
70.390210
21
243.801720
0
LINE
8
Layer 1
10
70.390210
20
243.801720
11
70.582558
21
244.257624
0
LINE
8
Layer 1
10
70.582558
20
244.257624
11
70.380751
21
244.257624
0
LINE
8
Layer 1
10
70.380751
20
244.257624
11
70.246213
21
243.931265
0
LINE
8
Layer 1
10
70.246213
20
243.931265
11
69.954014
21
243.822479
0
LINE
8
Layer 1
10
69.954014
20
243.822479
11
69.590605
21
243.992227
0
LINE
8
Layer 1
10
69.590605
20
243.992227
11
69.455805
21
244.448919
0
LINE
8
Layer 1
10
69.455805
20
244.448919
11
69.585350
21
244.913757
0
LINE
8
Layer 1
10
69.585350
20
244.913757
11
69.937197
21
245.083769
0
LINE
8
Layer 1
10
69.937197
20
245.083769
11
70.220724
21
245.000208
0
LINE
8
Layer 1
10
70.220724
20
245.000208
11
70.351320
21
244.755833
0
LINE
8
Layer 1
10
70.351320
20
244.755833
11
70.551026
21
244.755833
0
LINE
8
Layer 1
10
70.551026
20
244.755833
11
70.358941
21
245.132118
0
LINE
8
Layer 1
10
70.358941
20
245.132118
11
69.960321
21
245.256145
0
LINE
8
Layer 1
10
69.960321
20
245.256145
11
69.615043
21
245.174621
0
LINE
8
Layer 1
10
69.615043
20
245.174621
11
69.400623
21
244.971304
0
LINE
8
Layer 1
10
69.400623
20
244.971304
11
69.260305
21
244.446817
0
LINE
8
Layer 1
10
69.260305
20
244.446817
11
69.260305
21
244.446817
0
LINE
8
Layer 1
10
72.230642
20
244.440511
11
72.028310
21
245.033580
0
LINE
8
Layer 1
10
72.028310
20
245.033580
11
71.488582
21
245.256145
0
LINE
8
Layer 1
10
71.488582
20
245.256145
11
70.954900
21
245.034368
0
LINE
8
Layer 1
10
70.954900
20
245.034368
11
70.750729
21
244.453124
0
LINE
8
Layer 1
10
70.750729
20
244.453124
11
70.955163
21
243.871879
0
LINE
8
Layer 1
10
70.955163
20
243.871879
11
71.490686
21
243.650102
0
LINE
8
Layer 1
10
71.490686
20
243.650102
11
72.032515
21
243.879762
0
LINE
8
Layer 1
10
72.032515
20
243.879762
11
72.230642
21
244.440511
0
LINE
8
Layer 1
10
72.230642
20
244.440511
11
72.230642
21
244.440511
0
LINE
8
Layer 1
10
71.488582
20
245.083769
11
71.886415
21
244.909290
0
LINE
8
Layer 1
10
71.886415
20
244.909290
11
72.035142
21
244.444715
0
LINE
8
Layer 1
10
72.035142
20
244.444715
11
71.884313
21
243.994855
0
LINE
8
Layer 1
10
71.884313
20
243.994855
11
71.490686
21
243.822479
0
LINE
8
Layer 1
10
71.490686
20
243.822479
11
71.096269
21
243.995906
0
LINE
8
Layer 1
10
71.096269
20
243.995906
11
70.946228
21
244.453124
0
LINE
8
Layer 1
10
70.946228
20
244.453124
11
71.096006
21
244.910341
0
LINE
8
Layer 1
10
71.096006
20
244.910341
11
71.488582
21
245.083769
0
LINE
8
Layer 1
10
71.488582
20
245.083769
11
71.488582
21
245.083769
0
LINE
8
Layer 1
10
66.546434
20
242.964801
11
66.423458
21
243.297729
0
LINE
8
Layer 1
10
66.423458
20
243.297729
11
66.073450
21
243.414661
0
LINE
8
Layer 1
10
66.073450
20
243.414661
11
65.440703
21
243.414661
0
LINE
8
Layer 1
10
65.440703
20
243.414661
11
65.440703
21
241.882193
0
LINE
8
Layer 1
10
65.440703
20
241.882193
11
65.636203
21
241.882193
0
LINE
8
Layer 1
10
65.636203
20
241.882193
11
65.636203
21
242.531758
0
LINE
8
Layer 1
10
65.636203
20
242.531758
11
66.117596
21
242.531758
0
LINE
8
Layer 1
10
66.117596
20
242.531758
11
66.426612
21
242.649741
0
LINE
8
Layer 1
10
66.426612
20
242.649741
11
66.546434
21
242.964801
0
LINE
8
Layer 1
10
66.546434
20
242.964801
11
66.546434
21
242.964801
0
LINE
8
Layer 1
10
65.636203
20
242.704134
11
65.636203
21
243.242284
0
LINE
8
Layer 1
10
65.636203
20
243.242284
11
66.044020
21
243.242284
0
LINE
8
Layer 1
10
66.044020
20
243.242284
11
66.263432
21
243.170811
0
LINE
8
Layer 1
10
66.263432
20
243.170811
11
66.342526
21
242.973209
0
LINE
8
Layer 1
10
66.342526
20
242.973209
11
66.263432
21
242.775607
0
LINE
8
Layer 1
10
66.263432
20
242.775607
11
66.044020
21
242.704134
0
LINE
8
Layer 1
10
66.044020
20
242.704134
11
65.636203
21
242.704134
0
LINE
8
Layer 1
10
68.215538
20
242.624252
11
68.013206
21
243.217321
0
LINE
8
Layer 1
10
68.013206
20
243.217321
11
67.473479
21
243.439887
0
LINE
8
Layer 1
10
67.473479
20
243.439887
11
66.939795
21
243.218110
0
LINE
8
Layer 1
10
66.939795
20
243.218110
11
66.735624
21
242.636865
0
LINE
8
Layer 1
10
66.735624
20
242.636865
11
66.940058
21
242.055621
0
LINE
8
Layer 1
10
66.940058
20
242.055621
11
67.475581
21
241.833844
0
LINE
8
Layer 1
10
67.475581
20
241.833844
11
68.017410
21
242.063504
0
LINE
8
Layer 1
10
68.017410
20
242.063504
11
68.215538
21
242.624252
0
LINE
8
Layer 1
10
68.215538
20
242.624252
11
68.215538
21
242.624252
0
LINE
8
Layer 1
10
67.473479
20
243.267510
11
67.871311
21
243.093032
0
LINE
8
Layer 1
10
67.871311
20
243.093032
11
68.020038
21
242.628457
0
LINE
8
Layer 1
10
68.020038
20
242.628457
11
67.869209
21
242.178597
0
LINE
8
Layer 1
10
67.869209
20
242.178597
11
67.475581
21
242.006220
0
LINE
8
Layer 1
10
67.475581
20
242.006220
11
67.081165
21
242.179648
0
LINE
8
Layer 1
10
67.081165
20
242.179648
11
66.931124
21
242.636865
0
LINE
8
Layer 1
10
66.931124
20
242.636865
11
67.080902
21
243.094083
0
LINE
8
Layer 1
10
67.080902
20
243.094083
11
67.473479
21
243.267510
0
LINE
8
Layer 1
10
67.473479
20
243.267510
11
67.473479
21
243.267510
0
LINE
8
Layer 1
10
69.848905
20
241.882193
11
70.237803
21
243.414661
0
LINE
8
Layer 1
10
70.237803
20
243.414661
11
70.019179
21
243.414661
0
LINE
8
Layer 1
10
70.019179
20
243.414661
11
69.737491
21
242.170188
0
LINE
8
Layer 1
10
69.737491
20
242.170188
11
69.388534
21
243.414661
0
LINE
8
Layer 1
10
69.388534
20
243.414661
11
69.178319
21
243.414661
0
LINE
8
Layer 1
10
69.178319
20
243.414661
11
68.837771
21
242.170188
0
LINE
8
Layer 1
10
68.837771
20
242.170188
11
68.549776
21
243.414661
0
LINE
8
Layer 1
10
68.549776
20
243.414661
11
68.331153
21
243.414661
0
LINE
8
Layer 1
10
68.331153
20
243.414661
11
68.724255
21
241.882193
0
LINE
8
Layer 1
10
68.724255
20
241.882193
11
68.938674
21
241.882193
0
LINE
8
Layer 1
10
68.938674
20
241.882193
11
69.281325
21
243.141381
0
LINE
8
Layer 1
10
69.281325
20
243.141381
11
69.634486
21
241.882193
0
LINE
8
Layer 1
10
69.634486
20
241.882193
11
69.848905
21
241.882193
0
LINE
8
Layer 1
10
70.633004
20
242.580107
11
71.467557
21
242.580107
0
LINE
8
Layer 1
10
71.467557
20
242.580107
11
71.467557
21
242.752483
0
LINE
8
Layer 1
10
71.467557
20
242.752483
11
70.633004
21
242.752483
0
LINE
8
Layer 1
10
70.633004
20
242.752483
11
70.633004
21
243.242284
0
LINE
8
Layer 1
10
70.633004
20
243.242284
11
71.499090
21
243.242284
0
LINE
8
Layer 1
10
71.499090
20
243.242284
11
71.499090
21
243.414661
0
LINE
8
Layer 1
10
71.499090
20
243.414661
11
70.437503
21
243.414661
0
LINE
8
Layer 1
10
70.437503
20
243.414661
11
70.437503
21
241.882193
0
LINE
8
Layer 1
10
70.437503
20
241.882193
11
71.536929
21
241.882193
0
LINE
8
Layer 1
10
71.536929
20
241.882193
11
71.536929
21
242.054570
0
LINE
8
Layer 1
10
71.536929
20
242.054570
11
70.633004
21
242.054570
0
LINE
8
Layer 1
10
70.633004
20
242.054570
11
70.633004
21
242.580107
0
LINE
8
Layer 1
10
72.699417
20
242.638967
11
72.941164
21
243.004741
0
LINE
8
Layer 1
10
72.941164
20
243.004741
11
72.820553
21
243.309028
0
LINE
8
Layer 1
10
72.820553
20
243.309028
11
72.474487
21
243.414661
0
LINE
8
Layer 1
10
72.474487
20
243.414661
11
71.768165
21
243.414661
0
LINE
8
Layer 1
10
71.768165
20
243.414661
11
71.768165
21
241.882193
0
LINE
8
Layer 1
10
71.768165
20
241.882193
11
71.963663
21
241.882193
0
LINE
8
Layer 1
10
71.963663
20
241.882193
11
71.963663
21
242.542268
0
LINE
8
Layer 1
10
71.963663
20
242.542268
11
72.468181
21
242.542268
0
LINE
8
Layer 1
10
72.468181
20
242.542268
11
72.659738
21
242.476576
0
LINE
8
Layer 1
10
72.659738
20
242.476576
11
72.720438
21
242.268989
0
LINE
8
Layer 1
10
72.720438
20
242.268989
11
72.720438
21
242.132349
0
LINE
8
Layer 1
10
72.720438
20
242.132349
11
72.762481
21
241.882193
0
LINE
8
Layer 1
10
72.762481
20
241.882193
11
73.000024
21
241.882193
0
LINE
8
Layer 1
10
73.000024
20
241.882193
11
73.000024
21
241.930543
0
LINE
8
Layer 1
10
73.000024
20
241.930543
11
72.907530
21
242.172290
0
LINE
8
Layer 1
10
72.907530
20
242.172290
11
72.909636
21
242.279500
0
LINE
8
Layer 1
10
72.909636
20
242.279500
11
72.876260
21
242.480518
0
LINE
8
Layer 1
10
72.876260
20
242.480518
11
72.699421
21
242.638967
0
LINE
8
Layer 1
10
72.699421
20
242.638967
11
72.699417
21
242.638967
0
LINE
8
Layer 1
10
72.737256
20
242.977414
11
72.664994
21
242.778235
0
LINE
8
Layer 1
10
72.664994
20
242.778235
11
72.436648
21
242.714645
0
LINE
8
Layer 1
10
72.436648
20
242.714645
11
71.963663
21
242.714645
0
LINE
8
Layer 1
10
71.963663
20
242.714645
11
71.963663
21
243.242284
0
LINE
8
Layer 1
10
71.963663
20
243.242284
11
72.436648
21
243.242284
0
LINE
8
Layer 1
10
72.436648
20
243.242284
11
72.648439
21
243.191833
0
LINE
8
Layer 1
10
72.648439
20
243.191833
11
72.737256
21
242.977414
0
LINE
8
Layer 1
10
72.737256
20
242.977414
11
72.737256
21
242.977414
0
LINE
8
Layer 1
10
63.000027
20
245.256147
11
63.437011
21
245.256147
0
LINE
8
Layer 1
10
63.437011
20
245.256147
11
63.437011
21
243.698453
0
LINE
8
Layer 1
10
63.437011
20
243.698453
11
63.000027
21
243.698453
0
LINE
8
Layer 1
10
63.000027
20
243.698453
11
63.000027
21
245.256147
0
LINE
8
Layer 1
10
63.873995
20
245.256147
11
64.310979
21
245.256147
0
LINE
8
Layer 1
10
64.310979
20
245.256147
11
64.310979
21
243.698453
0
LINE
8
Layer 1
10
64.310979
20
243.698453
11
63.873995
21
243.698453
0
LINE
8
Layer 1
10
63.873995
20
243.698453
11
63.873995
21
245.256147
 0 
ENDSEC
 0 
EOF